<svg xmlns="http://www.w3.org/2000/svg" xmlns:xlink="http://www.w3.org/1999/xlink" width="111.912" height="129.225" viewBox="0 0 111.912 129.225">
  <defs>
    <linearGradient id="linear-gradient" x1="0.156" y1="0.202" x2="0.872" y2="0.823" gradientUnits="objectBoundingBox">
      <stop offset="0" stop-color="#8670cc"/>
      <stop offset="0.988" stop-color="#ff5e81"/>
    </linearGradient>
  </defs>
  <g id="Groupe_10" data-name="Groupe 10" transform="translate(-110.146 -78.182)">
    <g id="Groupe_7" data-name="Groupe 7" transform="translate(110.146 78.182)">
      <path id="Tracé_3392" data-name="Tracé 3392" d="M166.1,207.407,110.146,175.1V110.488L166.1,78.182l55.956,32.306V175.1ZM113.456,173.19l52.646,30.4,52.646-30.4V112.4L166.1,82l-52.646,30.4Z" transform="translate(-110.146 -78.182)" fill="url(#linear-gradient)"/>
    </g>
    <g id="Groupe_9" data-name="Groupe 9" transform="translate(126.714 121.037)">
      <g id="Groupe_8" data-name="Groupe 8" transform="translate(10.195 0)">
        <path id="Tracé_3393" data-name="Tracé 3393" d="M199.086,220.6h7v13.1a8.054,8.054,0,0,1,6.764-3.216c5.818,0,10.406,4.588,10.406,12.629,0,8.94-5.2,12.061-9.98,12.061a7.908,7.908,0,0,1-7.19-3.831c-.047.757-.094,1.892-.237,3.358h-6.764Zm11.872,14.568c-5.155,0-5.155,5.865-5.155,7.379,0,5.439,2.318,8.041,5.487,8.041,4.824,0,4.824-6.007,4.824-7.237C216.114,241.461,216.019,235.17,210.958,235.17Z" transform="translate(-199.086 -220.602)"/>
        <path id="Tracé_3394" data-name="Tracé 3394" d="M300.254,261.626a21.7,21.7,0,0,1-5.439.757c-7.047,0-7.047-4.446-7.047-6.433v-13.1h-4.588v-4.635h4.588V233.53l6.953-2.554v7.237H300.4v4.635H294.72v10.784c.047,2.176.047,3.547,3.169,3.547a17.672,17.672,0,0,0,2.365-.142Z" transform="translate(-257.875 -227.854)"/>
        <path id="Tracé_3395" data-name="Tracé 3395" d="M371.95,254.32a53.412,53.412,0,0,0-.331,5.912v17.642c0,8.8-7.331,9.649-11.919,9.649-3.406,0-10.075-.426-10.5-7.663h6.717c.094.71.426,3.311,4.162,3.311,2.081,0,3.879-.993,4.352-3.122.284-1.183.284-2.034.331-5.676a7.511,7.511,0,0,1-6.432,3.264c-6.859,0-10.075-5.959-10.075-11.73,0-6.054,3.358-11.825,10.217-11.825,4.351,0,5.96,2.365,6.669,3.405l.236-3.169Zm-12.014,18.541c4.919,0,4.919-5.771,4.919-6.811,0-2.7-.52-7.284-4.777-7.284-2.649,0-4.824,2.034-4.824,7.142C355.253,267.09,355.253,272.861,359.936,272.861Z" transform="translate(-303.368 -244.008)"/>
      </g>
      <rect id="Rectangle_13" data-name="Rectangle 13" width="6.93" height="6.929" transform="translate(0 27.174)" fill="#ea5d2f"/>
    </g>
  </g>
</svg>
