<svg xmlns="http://www.w3.org/2000/svg" xmlns:xlink="http://www.w3.org/1999/xlink" width="52.479" height="62.133" viewBox="0 0 52.479 62.133">
  <defs>
    <linearGradient id="linear-gradient" x1="0.156" y1="0.202" x2="0.872" y2="0.823" gradientUnits="objectBoundingBox">
      <stop offset="0" stop-color="#8670cc"/>
      <stop offset="0.988" stop-color="#ff5e81"/>
    </linearGradient>
  </defs>
  <g id="Groupe_94" data-name="Groupe 94" transform="translate(-1811.219 -58.16)">
    <g id="Groupe_93" data-name="Groupe 93">
      <g id="Groupe_11" data-name="Groupe 11" transform="translate(1811.219 58.16)">
        <path id="Tracé_3396" data-name="Tracé 3396" d="M134.885,135.315l-24.739-14.283V92.465l24.739-14.283,24.74,14.283v28.567Z" transform="translate(-107.146 -73.182)" fill="#fff"/>
      </g>
    </g>
    <g id="Groupe_10" data-name="Groupe 10" transform="translate(1701.073 -20.022)">
      <g id="Groupe_7" data-name="Groupe 7" transform="translate(110.146 78.182)">
        <path id="Tracé_3392" data-name="Tracé 3392" d="M134.885,135.315l-24.739-14.283V92.465l24.739-14.283,24.74,14.283v28.567Zm-23.276-15.128,23.276,13.439,23.276-13.439V93.31L134.885,79.872,111.609,93.31Z" transform="translate(-110.146 -78.182)" fill="url(#linear-gradient)"/>
      </g>
      <g id="Groupe_9" data-name="Groupe 9" transform="translate(117.471 97.129)">
        <g id="Groupe_8" data-name="Groupe 8" transform="translate(4.507 0)">
          <path id="Tracé_3393" data-name="Tracé 3393" d="M199.086,220.6h3.095v5.793a3.561,3.561,0,0,1,2.99-1.422c2.572,0,4.6,2.028,4.6,5.583,0,3.952-2.3,5.333-4.412,5.333a3.5,3.5,0,0,1-3.179-1.694c-.021.335-.042.837-.1,1.485h-2.99Zm5.249,6.441c-2.279,0-2.279,2.593-2.279,3.262,0,2.4,1.025,3.555,2.426,3.555,2.133,0,2.133-2.656,2.133-3.2C206.614,229.824,206.572,227.043,204.335,227.043Z" transform="translate(-199.086 -220.602)"/>
          <path id="Tracé_3394" data-name="Tracé 3394" d="M290.728,244.527a9.6,9.6,0,0,1-2.4.335c-3.116,0-3.116-1.966-3.116-2.844v-5.793h-2.029v-2.049h2.029v-2.07l3.074-1.129v3.2h2.51v2.049h-2.51v4.768c.021.962.021,1.568,1.4,1.568a7.812,7.812,0,0,0,1.046-.063Z" transform="translate(-271.991 -229.596)"/>
          <path id="Tracé_3395" data-name="Tracé 3395" d="M358.73,254.188a23.615,23.615,0,0,0-.146,2.614v7.8c0,3.89-3.241,4.266-5.27,4.266-1.506,0-4.454-.188-4.642-3.388h2.97c.042.314.188,1.464,1.84,1.464a1.806,1.806,0,0,0,1.924-1.38,11.3,11.3,0,0,0,.146-2.509,3.321,3.321,0,0,1-2.844,1.443c-3.032,0-4.454-2.635-4.454-5.186,0-2.677,1.485-5.228,4.517-5.228a3.2,3.2,0,0,1,2.949,1.506l.1-1.4Zm-5.312,8.2c2.175,0,2.175-2.551,2.175-3.011,0-1.192-.23-3.22-2.112-3.22-1.171,0-2.133.9-2.133,3.158C351.348,259.834,351.348,262.385,353.418,262.385Z" transform="translate(-328.408 -249.629)"/>
        </g>
        <rect id="Rectangle_13" data-name="Rectangle 13" width="3.064" height="3.063" transform="translate(0 12.014)" fill="#ea5d2f"/>
      </g>
    </g>
  </g>
</svg>
